<!DOCTYPE svg PUBLIC "-//W3C//DTD SVG 20010904//EN" "http://www.w3.org/TR/2001/REC-SVG-20010904/DTD/svg10.dtd">
<svg version="1.0" xmlns="http://www.w3.org/2000/svg" width="1000px" height="1017px" viewBox="0 0 10000 10170" preserveAspectRatio="xMidYMid meet">
<g id="layer101" fill="#414042" stroke="none">
 <path d="M6031 10148 c-6 -13 -29 -52 -51 -88 -21 -36 -53 -92 -71 -125 -17 -33 -35 -62 -38 -65 -4 -3 -20 -30 -35 -60 -16 -30 -34 -62 -42 -71 -8 -8 -14 -19 -14 -24 0 -4 -18 -36 -40 -71 -22 -35 -40 -67 -40 -72 0 -4 -8 -18 -17 -32 -21 -28 -70 -112 -109 -185 -15 -27 -31 -52 -35 -53 -5 -2 -7 -8 -3 -13 3 -5 1 -9 -5 -9 -5 0 -13 -10 -16 -22 -4 -13 -25 -51 -46 -85 -22 -34 -39 -67 -39 -73 0 -5 -8 -18 -17 -28 -10 -10 -31 -43 -46 -72 -44 -85 -84 -154 -97 -168 -6 -7 -16 -25 -23 -40 -7 -15 -29 -55 -49 -88 -21 -34 -38 -66 -38 -72 0 -5 -6 -15 -14 -21 -8 -7 -27 -38 -42 -69 -16 -31 -32 -59 -36 -62 -6 -5 -19 -28 -93 -160 -20 -36 -53 -94 -75 -130 -21 -36 -48 -85 -61 -110 -12 -25 -28 -52 -35 -60 -13 -16 -43 -68 -95 -165 -17 -33 -35 -62 -39 -65 -4 -3 -20 -30 -35 -60 -15 -30 -31 -57 -34 -60 -4 -3 -20 -30 -35 -60 -16 -30 -37 -66 -47 -79 -11 -13 -19 -29 -19 -35 0 -7 -8 -21 -18 -32 -9 -10 -29 -45 -45 -76 -15 -31 -31 -59 -36 -63 -6 -3 -22 -29 -36 -58 -14 -28 -41 -77 -60 -107 -19 -30 -48 -82 -65 -114 -16 -33 -34 -62 -38 -65 -4 -4 -20 -32 -35 -63 -15 -32 -31 -58 -35 -58 -4 0 -18 -24 -31 -52 -13 -29 -27 -55 -31 -58 -7 -5 -20 -27 -88 -153 -12 -23 -30 -53 -40 -67 -10 -14 -31 -51 -47 -82 -15 -32 -32 -58 -37 -58 -4 0 -8 -6 -8 -12 0 -7 -18 -41 -40 -76 -22 -34 -40 -66 -40 -70 0 -4 -8 -18 -17 -32 -18 -23 -64 -104 -118 -204 -15 -27 -33 -56 -41 -64 -8 -7 -14 -18 -14 -24 0 -6 -18 -39 -40 -74 -22 -35 -40 -68 -40 -72 0 -5 -8 -20 -19 -33 -10 -13 -31 -49 -47 -79 -15 -30 -31 -57 -35 -60 -3 -3 -19 -30 -34 -60 -15 -30 -31 -57 -34 -60 -4 -3 -17 -25 -30 -50 -13 -25 -26 -47 -30 -50 -4 -3 -18 -27 -30 -53 -13 -26 -28 -53 -35 -60 -6 -7 -24 -38 -39 -69 -16 -32 -32 -60 -37 -63 -5 -3 -18 -26 -29 -50 -11 -24 -25 -50 -31 -57 -14 -16 -58 -91 -100 -172 -16 -33 -34 -62 -38 -65 -4 -4 -20 -32 -36 -64 -16 -31 -32 -60 -36 -62 -5 -3 -18 -26 -31 -53 -12 -26 -26 -49 -30 -52 -4 -3 -19 -28 -34 -55 -15 -28 -44 -79 -65 -115 -21 -36 -50 -87 -65 -115 -15 -27 -36 -61 -46 -74 -11 -13 -19 -29 -19 -36 0 -7 -9 -23 -19 -37 -11 -13 -33 -51 -50 -85 -18 -34 -35 -63 -39 -65 -4 -2 -20 -28 -35 -58 -37 -73 -83 -152 -96 -167 -6 -7 -17 -25 -23 -40 -7 -15 -27 -51 -45 -80 -18 -29 -33 -56 -33 -61 0 -5 -9 -21 -21 -36 -12 -15 -31 -46 -43 -69 -19 -36 -35 -48 -107 -84 -232 -117 -501 -200 -789 -245 -134 -21 -567 -18 -705 5 -143 24 -314 67 -444 112 -56 20 -107 35 -112 33 -13 -4 92 -175 188 -306 214 -293 497 -584 767 -787 367 -275 741 -441 1163 -517 112 -20 161 -23 398 -23 274 0 332 5 545 46 273 53 580 159 842 290 54 27 99 49 101 49 2 0 7 -35 11 -78 7 -93 46 -233 86 -313 38 -74 114 -165 187 -224 109 -86 103 -78 103 -142 0 -32 7 -103 15 -158 49 -323 189 -649 388 -905 64 -82 179 -210 189 -210 4 0 28 39 52 88 62 122 178 294 356 527 85 110 187 244 227 299 l72 98 392 0 391 0 112 -148 c61 -82 168 -223 237 -314 152 -199 255 -353 311 -466 23 -46 45 -84 49 -84 4 0 38 34 76 76 308 343 477 728 500 1142 l6 112 61 44 c83 59 187 171 229 248 55 97 78 193 78 324 0 173 -51 369 -146 565 l-17 36 115 174 c63 96 152 239 197 318 72 126 82 147 76 179 -3 19 -10 38 -16 42 -8 5 -6 9 5 14 14 5 16 14 11 41 l-7 35 821 0 c916 0 839 -7 799 73 -12 23 -24 44 -28 47 -3 3 -17 25 -30 50 -13 25 -33 56 -43 69 -10 13 -18 28 -18 33 0 4 -18 37 -40 72 -22 35 -40 66 -40 69 0 4 -16 31 -35 61 -19 30 -35 59 -35 65 0 5 -6 16 -14 24 -8 7 -28 40 -46 73 -17 32 -49 88 -70 124 -59 98 -92 157 -122 214 -15 28 -32 57 -38 64 -6 7 -23 36 -38 65 -15 28 -29 54 -33 57 -4 3 -21 32 -38 65 -52 97 -82 149 -95 165 -7 8 -23 36 -35 62 -12 25 -29 52 -37 58 -7 7 -14 18 -14 24 0 6 -17 38 -38 71 -21 33 -44 75 -51 93 -7 17 -18 32 -23 32 -5 0 -6 5 -3 10 3 6 2 10 -3 10 -5 0 -19 23 -32 50 -13 28 -26 50 -30 50 -4 0 -17 24 -31 53 -13 28 -27 54 -30 57 -4 3 -22 32 -40 65 -18 33 -40 71 -51 84 -10 13 -18 29 -18 35 0 6 -8 22 -17 36 -22 29 -79 127 -165 282 -14 26 -34 60 -98 168 -49 82 -70 121 -70 130 0 5 -4 10 -9 10 -5 0 -23 28 -40 63 -18 34 -50 91 -71 127 -22 36 -49 84 -60 107 -11 23 -25 45 -30 48 -5 3 -21 31 -37 63 -15 31 -36 66 -45 76 -10 11 -18 24 -18 29 0 6 -17 37 -39 71 -21 34 -41 71 -45 84 -4 12 -12 22 -17 22 -6 0 -8 4 -4 9 3 5 1 12 -5 16 -6 3 -20 25 -31 48 -12 23 -25 44 -28 47 -4 3 -20 30 -35 60 -16 30 -37 66 -47 79 -11 13 -19 28 -19 33 0 5 -15 32 -33 61 -18 29 -39 67 -46 85 -7 17 -17 32 -22 32 -5 0 -9 6 -10 13 0 6 -13 32 -29 57 -16 25 -43 72 -60 105 -18 32 -40 70 -51 83 -10 14 -19 29 -19 34 0 5 -16 34 -35 64 -19 30 -35 58 -35 63 0 5 -10 22 -23 38 -12 15 -33 48 -46 73 -12 25 -40 74 -61 110 -21 36 -51 88 -66 115 -15 28 -30 52 -34 55 -4 3 -18 29 -31 58 -13 28 -27 52 -31 52 -4 0 -20 26 -35 58 -15 31 -31 59 -35 63 -4 3 -22 32 -38 65 -39 74 -85 156 -97 169 -5 6 -19 31 -32 57 -12 27 -26 50 -31 53 -4 2 -20 31 -36 62 -16 32 -34 63 -40 70 -7 7 -22 34 -35 60 -12 26 -26 50 -30 53 -4 3 -17 25 -30 50 -13 25 -26 47 -30 50 -3 3 -21 32 -38 65 -42 79 -92 165 -113 195 -10 14 -18 28 -18 32 0 4 -18 36 -40 70 -22 35 -40 68 -40 75 0 6 -6 18 -14 25 -8 8 -26 37 -41 64 -54 100 -100 181 -117 204 -10 14 -18 28 -18 32 0 4 -16 32 -35 63 -20 30 -38 63 -42 73 -3 9 -12 24 -20 33 -13 16 -39 61 -100 177 -30 58 -61 69 -82 30z"/>
 </g>
<g id="layer102" fill="#425365" stroke="none">
 <path d="M6031 10148 c-6 -13 -29 -52 -51 -88 -21 -36 -53 -92 -71 -125 -17 -33 -35 -62 -38 -65 -4 -3 -20 -30 -35 -60 -16 -30 -34 -62 -42 -71 -8 -8 -14 -19 -14 -24 0 -4 -18 -36 -40 -71 -22 -35 -40 -67 -40 -72 0 -4 -8 -18 -17 -32 -21 -28 -70 -112 -109 -185 -15 -27 -31 -52 -35 -53 -5 -2 -7 -8 -3 -13 3 -5 1 -9 -5 -9 -5 0 -13 -10 -16 -22 -4 -13 -25 -51 -46 -85 -22 -34 -39 -67 -39 -73 0 -5 -8 -18 -17 -28 -10 -10 -31 -43 -46 -72 -44 -85 -84 -154 -97 -168 -6 -7 -16 -25 -23 -40 -7 -15 -29 -55 -49 -88 -21 -34 -38 -66 -38 -72 0 -5 -6 -15 -14 -21 -8 -7 -27 -38 -42 -69 -16 -31 -32 -59 -36 -62 -6 -5 -19 -28 -93 -160 -20 -36 -53 -94 -75 -130 -21 -36 -48 -85 -61 -110 -12 -25 -28 -52 -35 -60 -13 -16 -43 -68 -95 -165 -17 -33 -35 -62 -39 -65 -4 -3 -20 -30 -35 -60 -15 -30 -31 -57 -34 -60 -4 -3 -20 -30 -35 -60 -16 -30 -37 -66 -47 -79 -11 -13 -19 -29 -19 -35 0 -7 -8 -21 -18 -32 -9 -10 -29 -45 -45 -76 -15 -31 -31 -59 -36 -63 -6 -3 -22 -29 -36 -58 -14 -28 -41 -77 -60 -107 -19 -30 -48 -82 -65 -114 -16 -33 -34 -62 -38 -65 -4 -4 -20 -32 -35 -63 -15 -32 -31 -58 -35 -58 -4 0 -18 -24 -31 -52 -13 -29 -27 -55 -31 -58 -7 -5 -20 -27 -88 -153 -12 -23 -30 -53 -40 -67 -10 -14 -31 -51 -47 -82 -15 -32 -32 -58 -37 -58 -4 0 -8 -6 -8 -12 0 -7 -18 -41 -40 -76 -22 -34 -40 -66 -40 -70 0 -4 -8 -18 -17 -32 -18 -23 -64 -104 -118 -204 -15 -27 -33 -56 -41 -64 -8 -7 -14 -18 -14 -24 0 -6 -18 -39 -40 -74 -22 -35 -40 -68 -40 -72 0 -5 -8 -20 -19 -33 -10 -13 -31 -49 -47 -79 -15 -30 -31 -57 -35 -60 -3 -3 -19 -30 -34 -60 -15 -30 -31 -57 -34 -60 -4 -3 -17 -25 -30 -50 -13 -25 -26 -47 -30 -50 -4 -3 -18 -27 -30 -53 -13 -26 -28 -53 -35 -60 -6 -7 -24 -38 -39 -69 -16 -32 -32 -60 -37 -63 -5 -3 -18 -26 -29 -50 -11 -24 -25 -50 -31 -57 -14 -16 -58 -91 -100 -172 -16 -33 -34 -62 -38 -65 -4 -4 -20 -32 -36 -64 -16 -31 -32 -60 -36 -62 -5 -3 -18 -26 -31 -53 -12 -26 -26 -49 -30 -52 -4 -3 -19 -28 -34 -55 -15 -28 -44 -79 -65 -115 -21 -36 -50 -87 -65 -115 -15 -27 -36 -61 -46 -74 -11 -13 -19 -29 -19 -36 0 -7 -9 -23 -19 -37 -11 -13 -33 -51 -50 -85 -18 -34 -35 -63 -39 -65 -4 -2 -20 -28 -35 -58 -37 -73 -83 -152 -96 -167 -6 -7 -17 -25 -23 -40 -7 -15 -27 -51 -45 -80 -18 -29 -33 -56 -33 -61 0 -5 -9 -21 -21 -36 -12 -15 -31 -46 -43 -69 -19 -36 -35 -48 -107 -84 -232 -117 -501 -200 -789 -245 -134 -21 -567 -18 -705 5 -143 24 -314 67 -444 112 -56 20 -107 35 -112 33 -13 -4 92 -175 188 -306 214 -293 497 -584 767 -787 367 -275 741 -441 1163 -517 112 -20 161 -23 398 -23 274 0 332 5 545 46 282 55 599 165 866 302 l104 54 0 -91 c1 -198 60 -345 193 -480 45 -45 103 -95 129 -111 47 -29 48 -31 48 -80 0 -73 18 -216 40 -326 52 -254 181 -528 353 -749 64 -82 179 -210 189 -210 4 0 28 39 52 88 62 122 178 294 356 527 85 110 187 244 227 299 l72 98 392 0 391 0 112 -148 c61 -82 168 -223 237 -314 152 -199 255 -353 311 -466 23 -46 45 -84 49 -84 4 0 38 34 76 76 308 343 477 728 500 1142 l6 112 61 44 c83 59 187 171 229 248 92 164 104 374 35 613 -11 39 -23 75 -27 80 -4 6 -14 26 -21 45 -7 19 -28 67 -47 106 l-34 71 94 139 c93 137 212 330 278 451 33 61 33 63 14 77 -11 9 -32 16 -47 16 -46 0 -40 16 13 39 51 21 51 21 45 56 l-7 35 821 0 c916 0 839 -7 799 73 -12 23 -24 44 -28 47 -3 3 -17 25 -30 50 -13 25 -33 56 -43 69 -10 13 -18 28 -18 33 0 4 -18 37 -40 72 -22 35 -40 66 -40 69 0 4 -16 31 -35 61 -19 30 -35 59 -35 65 0 5 -6 16 -14 24 -8 7 -28 40 -46 73 -17 32 -49 88 -70 124 -59 98 -92 157 -122 214 -15 28 -32 57 -38 64 -6 7 -23 36 -38 65 -15 28 -29 54 -33 57 -4 3 -21 32 -38 65 -52 97 -82 149 -95 165 -7 8 -23 36 -35 62 -12 25 -29 52 -37 58 -7 7 -14 18 -14 24 0 6 -17 38 -38 71 -21 33 -44 75 -51 93 -7 17 -18 32 -23 32 -5 0 -6 5 -3 10 3 6 2 10 -3 10 -5 0 -19 23 -32 50 -13 28 -26 50 -30 50 -4 0 -17 24 -31 53 -13 28 -27 54 -30 57 -4 3 -22 32 -40 65 -18 33 -40 71 -51 84 -10 13 -18 29 -18 35 0 6 -8 22 -17 36 -22 29 -79 127 -165 282 -14 26 -34 60 -98 168 -49 82 -70 121 -70 130 0 5 -4 10 -9 10 -5 0 -23 28 -40 63 -18 34 -50 91 -71 127 -22 36 -49 84 -60 107 -11 23 -25 45 -30 48 -5 3 -21 31 -37 63 -15 31 -36 66 -45 76 -10 11 -18 24 -18 29 0 6 -17 37 -39 71 -21 34 -41 71 -45 84 -4 12 -12 22 -17 22 -6 0 -8 4 -4 9 3 5 1 12 -5 16 -6 3 -20 25 -31 48 -12 23 -25 44 -28 47 -4 3 -20 30 -35 60 -16 30 -37 66 -47 79 -11 13 -19 28 -19 33 0 5 -15 32 -33 61 -18 29 -39 67 -46 85 -7 17 -17 32 -22 32 -5 0 -9 6 -10 13 0 6 -13 32 -29 57 -16 25 -43 72 -60 105 -18 32 -40 70 -51 83 -10 14 -19 29 -19 34 0 5 -16 34 -35 64 -19 30 -35 58 -35 63 0 5 -10 22 -23 38 -12 15 -33 48 -46 73 -12 25 -40 74 -61 110 -21 36 -51 88 -66 115 -15 28 -30 52 -34 55 -4 3 -18 29 -31 58 -13 28 -27 52 -31 52 -4 0 -20 26 -35 58 -15 31 -31 59 -35 63 -4 3 -22 32 -38 65 -39 74 -85 156 -97 169 -5 6 -19 31 -32 57 -12 27 -26 50 -31 53 -4 2 -20 31 -36 62 -16 32 -34 63 -40 70 -7 7 -22 34 -35 60 -12 26 -26 50 -30 53 -4 3 -17 25 -30 50 -13 25 -26 47 -30 50 -3 3 -21 32 -38 65 -42 79 -92 165 -113 195 -10 14 -18 28 -18 32 0 4 -18 36 -40 70 -22 35 -40 68 -40 75 0 6 -6 18 -14 25 -8 8 -26 37 -41 64 -54 100 -100 181 -117 204 -10 14 -18 28 -18 32 0 4 -16 32 -35 63 -20 30 -38 63 -42 73 -3 9 -12 24 -20 33 -13 16 -39 61 -100 177 -30 58 -61 69 -82 30z m148 -5553 c66 -84 84 -120 76 -156 -9 -38 -59 -53 -178 -52 -99 0 -130 12 -148 54 -13 33 -11 36 73 151 71 97 103 98 177 3z m560 -560 l321 -330 83 -33 c131 -52 424 -159 652 -238 l210 -73 -68 0 c-54 -1 -75 3 -98 19 -29 22 -130 60 -158 60 -9 0 -38 12 -66 25 -27 14 -59 25 -70 25 -11 0 -37 9 -58 20 -20 11 -43 20 -50 20 -7 0 -30 9 -52 20 -22 11 -48 20 -60 20 -11 0 -29 7 -39 15 -11 8 -28 15 -38 15 -10 0 -26 4 -36 9 -9 5 -36 18 -58 30 -23 11 -49 21 -57 21 -8 0 -164 152 -347 337 -300 305 -372 383 -342 372 5 -2 154 -152 331 -334z m-1055 260 c-4 -8 -10 -15 -16 -15 -5 0 -6 -4 -3 -10 3 -5 1 -10 -4 -10 -6 0 -11 -5 -11 -11 0 -5 5 -7 11 -3 7 4 6 -2 -2 -17 -6 -13 -93 -105 -193 -204 -100 -99 -225 -226 -279 -283 -55 -57 -107 -102 -117 -102 -11 0 -22 -4 -25 -10 -3 -5 -13 -10 -22 -10 -8 0 -31 -7 -51 -16 -62 -27 -76 -32 -117 -45 -22 -6 -44 -15 -50 -20 -5 -5 -15 -9 -23 -9 -8 0 -28 -6 -45 -14 -18 -8 -50 -20 -72 -26 -22 -7 -53 -18 -70 -25 -16 -7 -55 -21 -85 -30 -30 -10 -59 -21 -65 -25 -28 -21 -159 -50 -222 -50 l-68 1 275 98 c151 54 360 130 464 169 l189 72 281 286 c155 158 287 295 294 305 16 23 34 25 26 4z m-540 -1088 c52 -29 95 -85 103 -130 9 -58 -35 -140 -91 -166 -23 -12 -57 -21 -76 -21 -52 0 -114 35 -145 82 -23 35 -27 49 -23 93 11 126 131 200 232 142z m2019 7 c45 -23 76 -53 98 -96 25 -49 24 -85 -4 -138 -27 -51 -90 -90 -147 -90 -87 0 -170 83 -170 169 0 58 38 121 89 148 52 27 90 29 134 7z"/>
 </g>
<g id="layer103" fill="#9a4735" stroke="none">
 <path d="M6031 10148 c-6 -13 -29 -52 -51 -88 -21 -36 -53 -92 -71 -125 -17 -33 -35 -62 -38 -65 -4 -3 -20 -30 -35 -60 -16 -30 -34 -62 -42 -71 -8 -8 -14 -19 -14 -24 0 -4 -18 -36 -40 -71 -22 -35 -40 -67 -40 -72 0 -4 -8 -18 -17 -32 -21 -28 -70 -112 -109 -185 -15 -27 -31 -52 -35 -53 -5 -2 -7 -8 -3 -13 3 -5 1 -9 -5 -9 -5 0 -13 -10 -16 -22 -4 -13 -25 -51 -46 -85 -22 -34 -39 -67 -39 -73 0 -5 -8 -18 -17 -28 -10 -10 -31 -43 -46 -72 -44 -85 -84 -154 -97 -168 -6 -7 -16 -25 -23 -40 -7 -15 -29 -55 -49 -88 -21 -34 -38 -66 -38 -72 0 -5 -6 -15 -14 -21 -8 -7 -27 -38 -42 -69 -16 -31 -32 -59 -36 -62 -6 -5 -19 -28 -93 -160 -20 -36 -53 -94 -75 -130 -21 -36 -48 -85 -61 -110 -12 -25 -28 -52 -35 -60 -13 -16 -43 -68 -95 -165 -17 -33 -35 -62 -39 -65 -4 -3 -20 -30 -35 -60 -15 -30 -31 -57 -34 -60 -4 -3 -20 -30 -35 -60 -16 -30 -37 -66 -47 -79 -11 -13 -19 -29 -19 -35 0 -7 -8 -21 -18 -32 -9 -10 -29 -45 -45 -76 -15 -31 -31 -59 -36 -63 -6 -3 -22 -29 -36 -58 -14 -28 -41 -77 -60 -107 -19 -30 -48 -82 -65 -114 -16 -33 -34 -62 -38 -65 -4 -4 -20 -32 -35 -63 -15 -32 -31 -58 -35 -58 -4 0 -18 -24 -31 -52 -13 -29 -27 -55 -31 -58 -7 -5 -20 -27 -88 -153 -12 -23 -30 -53 -40 -67 -10 -14 -31 -51 -47 -82 -15 -32 -32 -58 -37 -58 -4 0 -8 -6 -8 -12 0 -7 -18 -41 -40 -76 -22 -34 -40 -66 -40 -70 0 -4 -8 -18 -17 -32 -18 -23 -64 -104 -118 -204 -15 -27 -33 -56 -41 -64 -8 -7 -14 -18 -14 -24 0 -6 -18 -39 -40 -74 -22 -35 -40 -68 -40 -72 0 -5 -8 -20 -19 -33 -10 -13 -31 -49 -47 -79 -15 -30 -31 -57 -35 -60 -3 -3 -19 -30 -34 -60 -15 -30 -31 -57 -34 -60 -4 -3 -17 -25 -30 -50 -13 -25 -26 -47 -30 -50 -4 -3 -18 -27 -30 -53 -13 -26 -28 -53 -35 -60 -6 -7 -24 -38 -39 -69 -16 -32 -32 -60 -37 -63 -5 -3 -18 -26 -29 -50 -11 -24 -25 -50 -31 -57 -14 -16 -58 -91 -100 -172 -16 -33 -34 -62 -38 -65 -4 -4 -20 -32 -36 -64 -16 -31 -32 -60 -36 -62 -5 -3 -18 -26 -31 -53 -12 -26 -26 -49 -30 -52 -4 -3 -19 -28 -34 -55 -15 -28 -44 -79 -65 -115 -21 -36 -50 -87 -65 -115 -15 -27 -36 -61 -46 -74 -11 -13 -19 -29 -19 -36 0 -7 -9 -23 -19 -37 -11 -13 -33 -51 -50 -85 -18 -34 -35 -63 -39 -65 -4 -2 -20 -28 -35 -58 -37 -73 -83 -152 -96 -167 -6 -7 -17 -25 -23 -40 -7 -15 -27 -51 -45 -80 -18 -29 -33 -56 -33 -61 0 -5 -9 -21 -21 -36 -12 -15 -31 -46 -43 -69 -19 -36 -35 -48 -107 -84 -232 -117 -501 -200 -789 -245 -134 -21 -567 -18 -705 5 -142 24 -314 67 -442 111 -56 20 -105 36 -108 36 -15 0 1 -34 58 -126 279 -445 714 -878 1145 -1141 291 -177 604 -294 937 -350 136 -22 588 -26 725 -5 383 58 730 168 1056 335 l104 54 0 -91 c1 -198 60 -345 193 -480 45 -45 103 -95 129 -111 47 -29 48 -31 48 -80 0 -73 18 -216 40 -326 52 -254 181 -528 353 -749 64 -82 179 -210 189 -210 4 0 28 39 52 88 62 122 178 294 356 527 85 110 187 244 227 299 l72 98 392 0 391 0 112 -148 c61 -82 168 -223 237 -314 152 -199 255 -353 311 -466 23 -46 45 -84 49 -84 4 0 38 34 76 76 308 343 477 728 500 1142 l6 112 61 44 c83 59 187 171 229 248 55 97 78 193 78 324 0 180 -38 317 -151 544 l-22 46 95 139 c93 138 211 331 278 452 33 61 33 63 14 77 -11 9 -32 16 -47 16 -45 0 -40 16 12 38 52 22 57 32 40 76 l-10 26 -240 0 c-132 0 -248 4 -258 9 -9 5 -44 17 -77 26 -33 9 -74 26 -91 36 -17 10 -43 19 -56 19 -14 0 -46 11 -72 25 -26 14 -57 25 -70 25 -12 0 -31 7 -42 15 -10 8 -28 15 -39 15 -12 0 -38 9 -60 20 -22 11 -46 20 -55 20 -9 0 -25 7 -36 15 -10 8 -29 15 -41 15 -13 0 -23 5 -23 10 0 6 -9 10 -20 10 -10 0 -32 6 -47 12 -45 20 -730 717 -760 774 -14 27 -88 156 -163 286 l-138 238 -25 -42 c-166 -287 -308 -534 -361 -628 -20 -37 -117 -144 -299 -330 -148 -151 -275 -278 -281 -282 -22 -13 -378 -145 -584 -217 l-204 -71 -303 2 -303 3 320 555 c438 760 585 1015 624 1080 18 30 242 417 497 860 776 1346 908 1575 915 1582 4 4 45 -59 91 -140 149 -259 330 -572 426 -737 73 -125 949 -1643 1100 -1905 17 -30 192 -333 388 -673 196 -339 357 -622 357 -627 0 -7 278 -10 790 -10 645 0 790 2 790 13 0 14 -39 99 -49 107 -3 3 -17 25 -30 50 -13 25 -33 56 -43 69 -10 13 -18 28 -18 33 0 4 -18 37 -40 72 -22 35 -40 66 -40 69 0 4 -16 31 -35 61 -19 30 -35 59 -35 65 0 5 -6 16 -14 24 -8 7 -28 40 -46 73 -17 32 -49 88 -70 124 -59 98 -92 157 -122 214 -15 28 -32 57 -38 64 -6 7 -23 36 -38 65 -15 28 -29 54 -33 57 -4 3 -21 32 -38 65 -52 97 -82 149 -95 165 -7 8 -23 36 -35 62 -12 25 -29 52 -37 58 -7 7 -14 18 -14 24 0 6 -17 38 -38 71 -21 33 -44 75 -51 93 -7 17 -18 32 -23 32 -5 0 -6 5 -3 10 3 6 2 10 -3 10 -5 0 -19 23 -32 50 -13 28 -26 50 -30 50 -4 0 -17 24 -31 53 -13 28 -27 54 -30 57 -4 3 -22 32 -40 65 -18 33 -40 71 -51 84 -10 13 -18 29 -18 35 0 6 -8 22 -17 36 -22 29 -79 127 -165 282 -14 26 -34 60 -98 168 -49 82 -70 121 -70 130 0 5 -4 10 -9 10 -5 0 -23 28 -40 63 -18 34 -50 91 -71 127 -22 36 -49 84 -60 107 -11 23 -25 45 -30 48 -5 3 -21 31 -37 63 -15 31 -36 66 -45 76 -10 11 -18 24 -18 29 0 6 -17 37 -39 71 -21 34 -41 71 -45 84 -4 12 -12 22 -17 22 -6 0 -8 4 -4 9 3 5 1 12 -5 16 -6 3 -20 25 -31 48 -12 23 -25 44 -28 47 -4 3 -20 30 -35 60 -16 30 -37 66 -47 79 -11 13 -19 28 -19 33 0 5 -15 32 -33 61 -18 29 -39 67 -46 85 -7 17 -17 32 -22 32 -5 0 -9 6 -10 13 0 6 -13 32 -29 57 -16 25 -43 72 -60 105 -18 32 -40 70 -51 83 -10 14 -19 29 -19 34 0 5 -16 34 -35 64 -19 30 -35 58 -35 63 0 5 -10 22 -23 38 -12 15 -33 48 -46 73 -12 25 -40 74 -61 110 -21 36 -51 88 -66 115 -15 28 -30 52 -34 55 -4 3 -18 29 -31 58 -13 28 -27 52 -31 52 -4 0 -20 26 -35 58 -15 31 -31 59 -35 63 -4 3 -22 32 -38 65 -39 74 -85 156 -97 169 -5 6 -19 31 -32 57 -12 27 -26 50 -31 53 -4 2 -20 31 -36 62 -16 32 -34 63 -40 70 -7 7 -22 34 -35 60 -12 26 -26 50 -30 53 -4 3 -17 25 -30 50 -13 25 -26 47 -30 50 -3 3 -21 32 -38 65 -42 79 -92 165 -113 195 -10 14 -18 28 -18 32 0 4 -18 36 -40 70 -22 35 -40 68 -40 75 0 6 -6 18 -14 25 -8 8 -26 37 -41 64 -54 100 -100 181 -117 204 -10 14 -18 28 -18 32 0 4 -16 32 -35 63 -20 30 -38 63 -42 73 -3 9 -12 24 -20 33 -13 16 -39 61 -100 177 -30 58 -61 69 -82 30z m82 -5487 c34 -13 147 -166 147 -199 0 -60 -36 -75 -173 -76 -93 0 -111 3 -135 21 -44 34 -36 74 32 163 31 41 67 81 79 87 27 15 21 15 50 4z m-967 -1450 c99 -45 131 -159 70 -251 -30 -45 -79 -70 -141 -70 -53 0 -88 16 -130 59 -25 27 -30 41 -33 96 -4 58 -1 70 22 106 30 44 91 79 141 79 17 0 48 -9 71 -19z m2030 0 c99 -45 131 -159 70 -251 -30 -46 -79 -70 -144 -70 -57 0 -104 26 -140 80 -20 29 -23 45 -20 95 4 74 30 114 90 144 53 26 90 26 144 2z"/>
 </g>
<g id="layer104" fill="#4dba87" stroke="none">
 <path d="M6031 10148 c-6 -13 -29 -52 -51 -88 -21 -36 -53 -92 -71 -125 -17 -33 -35 -62 -38 -65 -4 -3 -20 -30 -35 -60 -16 -30 -34 -62 -42 -71 -8 -8 -14 -19 -14 -24 0 -4 -18 -36 -40 -71 -22 -35 -40 -67 -40 -72 0 -4 -8 -18 -17 -32 -21 -28 -70 -112 -109 -185 -15 -27 -31 -52 -35 -53 -5 -2 -7 -8 -3 -13 3 -5 1 -9 -5 -9 -5 0 -13 -10 -16 -22 -4 -13 -25 -51 -46 -85 -22 -34 -39 -67 -39 -73 0 -5 -8 -18 -17 -28 -10 -10 -31 -43 -46 -72 -44 -85 -84 -154 -97 -168 -6 -7 -16 -25 -23 -40 -7 -15 -29 -55 -49 -88 -21 -34 -38 -66 -38 -72 0 -5 -6 -15 -14 -21 -8 -7 -27 -38 -42 -69 -16 -31 -32 -59 -36 -62 -6 -5 -19 -28 -93 -160 -20 -36 -53 -94 -75 -130 -21 -36 -48 -85 -61 -110 -12 -25 -28 -52 -35 -60 -13 -16 -43 -68 -95 -165 -17 -33 -35 -62 -39 -65 -4 -3 -20 -30 -35 -60 -15 -30 -31 -57 -34 -60 -4 -3 -20 -30 -35 -60 -16 -30 -37 -66 -47 -79 -11 -13 -19 -29 -19 -35 0 -7 -8 -21 -18 -32 -9 -10 -29 -45 -45 -76 -15 -31 -31 -59 -36 -63 -6 -3 -22 -29 -36 -58 -14 -28 -41 -77 -60 -107 -19 -30 -48 -82 -65 -114 -16 -33 -34 -62 -38 -65 -4 -4 -20 -32 -35 -63 -15 -32 -31 -58 -35 -58 -4 0 -18 -24 -31 -52 -13 -29 -27 -55 -31 -58 -7 -5 -20 -27 -88 -153 -12 -23 -30 -53 -40 -67 -10 -14 -31 -51 -47 -82 -15 -32 -32 -58 -37 -58 -4 0 -8 -6 -8 -12 0 -7 -18 -41 -40 -76 -22 -34 -40 -66 -40 -70 0 -4 -8 -18 -17 -32 -18 -23 -64 -104 -118 -204 -15 -27 -33 -56 -41 -64 -8 -7 -14 -18 -14 -24 0 -6 -18 -39 -40 -74 -22 -35 -40 -68 -40 -72 0 -5 -8 -20 -19 -33 -10 -13 -31 -49 -47 -79 -15 -30 -31 -57 -35 -60 -3 -3 -19 -30 -34 -60 -15 -30 -31 -57 -34 -60 -4 -3 -17 -25 -30 -50 -13 -25 -26 -47 -30 -50 -4 -3 -18 -27 -30 -53 -13 -26 -28 -53 -35 -60 -6 -7 -24 -38 -39 -69 -16 -32 -32 -60 -37 -63 -5 -3 -18 -26 -29 -50 -11 -24 -25 -50 -31 -57 -14 -16 -58 -91 -100 -172 -16 -33 -34 -62 -38 -65 -4 -4 -20 -32 -36 -64 -16 -31 -32 -60 -36 -62 -5 -3 -18 -26 -31 -53 -12 -26 -26 -49 -30 -52 -4 -3 -19 -28 -34 -55 -15 -28 -44 -79 -65 -115 -21 -36 -50 -87 -65 -115 -15 -27 -36 -61 -46 -74 -11 -13 -19 -29 -19 -36 0 -7 -9 -23 -19 -37 -11 -13 -33 -51 -50 -85 -18 -34 -35 -63 -39 -65 -4 -2 -20 -28 -35 -58 -37 -73 -83 -152 -96 -167 -6 -7 -17 -25 -23 -40 -7 -15 -27 -51 -45 -80 -18 -29 -33 -56 -33 -61 0 -5 -9 -21 -21 -36 -12 -15 -31 -46 -43 -69 -19 -36 -35 -48 -107 -84 -232 -117 -501 -200 -789 -245 -134 -21 -567 -18 -705 5 -142 24 -314 67 -442 111 -56 20 -105 36 -108 36 -15 0 1 -34 58 -126 279 -445 714 -878 1145 -1141 291 -177 604 -294 937 -350 136 -22 588 -26 725 -5 372 56 662 146 1003 310 103 49 138 71 141 86 2 12 9 56 16 99 14 93 53 213 109 333 38 79 43 86 57 72 14 -14 12 -23 -25 -96 -56 -111 -117 -294 -132 -393 -14 -96 -6 -241 17 -320 29 -100 84 -189 169 -275 44 -44 101 -93 128 -108 26 -16 47 -35 47 -44 0 -52 24 -253 41 -351 46 -257 173 -531 352 -761 64 -82 179 -210 189 -210 4 0 28 39 52 88 62 122 178 294 356 527 85 110 187 244 227 299 l72 98 392 0 391 0 112 -148 c61 -82 168 -223 237 -314 152 -199 255 -353 311 -466 23 -46 45 -84 49 -84 4 0 38 34 76 76 308 343 477 728 500 1142 l6 112 61 44 c83 59 187 171 229 248 55 97 78 193 78 324 0 180 -38 317 -151 544 l-22 46 95 139 c93 138 211 331 278 452 33 61 33 63 14 77 -11 9 -30 16 -43 16 -21 0 -383 117 -447 144 -16 7 -57 21 -90 31 -33 9 -74 26 -91 36 -17 10 -43 19 -56 19 -14 0 -46 11 -72 25 -26 14 -57 25 -70 25 -12 0 -31 7 -42 15 -10 8 -28 15 -39 15 -12 0 -38 9 -60 20 -22 11 -46 20 -55 20 -9 0 -25 7 -36 15 -10 8 -29 15 -41 15 -13 0 -23 5 -23 10 0 6 -9 10 -20 10 -10 0 -30 5 -44 12 -30 13 -212 191 -590 576 -148 149 -270 272 -272 272 -2 0 -4 -11 -4 -24 0 -54 -43 -71 -182 -71 -83 0 -101 3 -125 21 -15 12 -30 33 -33 48 -6 30 26 61 -558 -538 l-262 -268 -178 -68 c-296 -113 -1071 -380 -1102 -380 -6 0 -10 12 -8 27 3 25 12 30 141 72 75 25 137 49 137 53 0 4 -87 9 -194 10 l-194 3 320 555 c438 761 585 1015 624 1080 18 30 242 417 497 860 776 1346 908 1575 915 1582 4 4 45 -59 91 -140 149 -259 330 -572 426 -737 73 -125 949 -1643 1100 -1905 17 -30 192 -333 388 -673 196 -339 357 -622 357 -627 0 -7 278 -10 790 -10 645 0 790 2 790 13 0 14 -39 99 -49 107 -3 3 -17 25 -30 50 -13 25 -33 56 -43 69 -10 13 -18 28 -18 33 0 4 -18 37 -40 72 -22 35 -40 66 -40 69 0 4 -16 31 -35 61 -19 30 -35 59 -35 65 0 5 -6 16 -14 24 -8 7 -28 40 -46 73 -17 32 -49 88 -70 124 -59 98 -92 157 -122 214 -15 28 -32 57 -38 64 -6 7 -23 36 -38 65 -15 28 -29 54 -33 57 -4 3 -21 32 -38 65 -52 97 -82 149 -95 165 -7 8 -23 36 -35 62 -12 25 -29 52 -37 58 -7 7 -14 18 -14 24 0 6 -17 38 -38 71 -21 33 -44 75 -51 93 -7 17 -18 32 -23 32 -5 0 -6 5 -3 10 3 6 2 10 -3 10 -5 0 -19 23 -32 50 -13 28 -26 50 -30 50 -4 0 -17 24 -31 53 -13 28 -27 54 -30 57 -4 3 -22 32 -40 65 -18 33 -40 71 -51 84 -10 13 -18 29 -18 35 0 6 -8 22 -17 36 -22 29 -79 127 -165 282 -14 26 -34 60 -98 168 -49 82 -70 121 -70 130 0 5 -4 10 -9 10 -5 0 -23 28 -40 63 -18 34 -50 91 -71 127 -22 36 -49 84 -60 107 -11 23 -25 45 -30 48 -5 3 -21 31 -37 63 -15 31 -36 66 -45 76 -10 11 -18 24 -18 29 0 6 -17 37 -39 71 -21 34 -41 71 -45 84 -4 12 -12 22 -17 22 -6 0 -8 4 -4 9 3 5 1 12 -5 16 -6 3 -20 25 -31 48 -12 23 -25 44 -28 47 -4 3 -20 30 -35 60 -16 30 -37 66 -47 79 -11 13 -19 28 -19 33 0 5 -15 32 -33 61 -18 29 -39 67 -46 85 -7 17 -17 32 -22 32 -5 0 -9 6 -10 13 0 6 -13 32 -29 57 -16 25 -43 72 -60 105 -18 32 -40 70 -51 83 -10 14 -19 29 -19 34 0 5 -16 34 -35 64 -19 30 -35 58 -35 63 0 5 -10 22 -23 38 -12 15 -33 48 -46 73 -12 25 -40 74 -61 110 -21 36 -51 88 -66 115 -15 28 -30 52 -34 55 -4 3 -18 29 -31 58 -13 28 -27 52 -31 52 -4 0 -20 26 -35 58 -15 31 -31 59 -35 63 -4 3 -22 32 -38 65 -39 74 -85 156 -97 169 -5 6 -19 31 -32 57 -12 27 -26 50 -31 53 -4 2 -20 31 -36 62 -16 32 -34 63 -40 70 -7 7 -22 34 -35 60 -12 26 -26 50 -30 53 -4 3 -17 25 -30 50 -13 25 -26 47 -30 50 -3 3 -21 32 -38 65 -42 79 -92 165 -113 195 -10 14 -18 28 -18 32 0 4 -18 36 -40 70 -22 35 -40 68 -40 75 0 6 -6 18 -14 25 -8 8 -26 37 -41 64 -54 100 -100 181 -117 204 -10 14 -18 28 -18 32 0 4 -16 32 -35 63 -20 30 -38 63 -42 73 -3 9 -12 24 -20 33 -13 16 -39 61 -100 177 -30 58 -61 69 -82 30z m-885 -6937 c99 -45 131 -159 70 -251 -30 -45 -79 -70 -141 -70 -53 0 -88 16 -130 59 -25 27 -30 41 -33 96 -4 58 -1 70 22 106 30 44 91 79 141 79 17 0 48 -9 71 -19z m2030 0 c99 -45 131 -159 70 -251 -30 -46 -79 -70 -144 -70 -57 0 -104 26 -140 80 -20 29 -23 45 -20 95 4 74 30 114 90 144 53 26 90 26 144 2z m-2242 -1935 c78 -24 201 -63 273 -86 l133 -41 -28 -37 c-15 -21 -101 -134 -191 -251 l-164 -214 -27 54 c-47 93 -98 241 -119 344 -23 113 -38 275 -26 275 5 0 72 -20 149 -44z m2466 -13 c0 -131 -48 -337 -114 -491 -60 -139 -51 -137 -137 -25 -41 54 -126 165 -188 246 -62 82 -110 151 -106 155 7 7 511 169 533 171 8 1 12 -17 12 -56z"/>
 <path d="M6057 4923 c-2 -4 -57 -100 -122 -213 -64 -113 -128 -222 -141 -242 -72 -112 23 -24 171 158 40 50 82 94 92 96 34 9 61 -10 121 -89 33 -43 79 -96 102 -118 l43 -40 -34 60 c-122 218 -228 395 -232 388z"/>
 <path d="M8066 3351 c5 -5 66 -27 136 -50 102 -34 131 -40 147 -31 23 12 26 26 11 64 l-10 26 -147 0 c-85 0 -143 -4 -137 -9z"/>
 </g>
<g id="layer105" fill="#ed7251" stroke="none">
 <path d="M6105 8523 c-214 -48 -392 -88 -395 -90 -6 -5 43 -93 52 -93 11 0 332 76 510 121 86 21 162 39 168 39 7 0 -78 -93 -187 -207 -110 -115 -220 -231 -246 -258 l-46 -51 25 -43 c14 -23 29 -41 33 -39 11 4 551 597 551 604 0 16 -55 104 -64 103 -6 0 -186 -39 -401 -86z"/>
 <path d="M6638 8126 c-21 -7 -118 -60 -217 -117 l-180 -103 21 -35 c12 -20 25 -40 29 -45 4 -5 77 31 161 80 189 109 220 124 255 124 65 0 109 -64 100 -146 -3 -29 -10 -61 -15 -71 -6 -10 -87 -63 -181 -117 -94 -54 -173 -102 -177 -107 -4 -7 17 -52 42 -87 2 -4 484 274 497 287 12 12 -20 71 -39 71 -8 0 -28 -7 -44 -15 l-29 -15 10 33 c14 48 11 123 -6 165 -41 97 -126 134 -227 98z"/>
 <path d="M6920 7514 c-151 -41 -254 -164 -254 -304 0 -69 13 -104 60 -159 74 -88 216 -95 336 -16 l37 24 -99 171 -99 171 26 10 c15 5 45 12 68 16 103 14 205 -86 205 -202 0 -40 2 -42 46 -37 l37 4 -5 62 c-10 119 -94 229 -199 260 -63 19 -87 19 -159 0z m-34 -227 c23 -39 56 -98 73 -129 l32 -57 -30 -15 c-44 -23 -122 -21 -155 5 -50 40 -70 111 -47 172 10 26 68 97 80 97 3 0 25 -33 47 -73z"/>
 <path d="M7275 6599 c-170 -38 -343 -76 -383 -84 l-72 -16 26 -50 c19 -34 32 -48 43 -44 9 2 129 31 266 64 138 32 285 68 328 79 42 11 77 18 77 15 0 -4 -83 -93 -433 -460 l-50 -51 24 -44 c14 -23 28 -42 32 -41 5 1 132 137 283 303 l275 300 -27 50 c-22 41 -32 50 -53 49 -14 0 -165 -32 -336 -70z"/>
 <path d="M7615 6110 c-132 -76 -241 -144 -243 -149 -2 -6 6 -27 18 -47 16 -25 27 -33 39 -29 15 6 482 273 490 281 8 7 -37 79 -51 81 -7 2 -121 -60 -253 -137z"/>
 <path d="M7912 5880 l-84 -158 -165 6 -166 5 24 -44 24 -44 133 -10 132 -10 -64 -106 -64 -106 26 -47 c31 -56 22 -65 122 118 l74 137 40 -5 c23 -3 101 -8 175 -11 l133 -6 -28 50 -27 51 -126 0 c-69 0 -132 4 -139 8 -9 6 4 38 54 123 l66 114 -23 43 c-13 24 -26 45 -29 47 -3 2 -43 -68 -88 -155z"/>
 <path d="M7192 5884 c-16 -11 -22 -25 -22 -53 0 -46 24 -71 67 -71 61 0 84 70 38 115 -28 29 -51 31 -83 9z"/>
 <path d="M8135 5406 c-236 -75 -330 -309 -188 -467 71 -78 177 -89 297 -30 36 18 66 37 66 42 0 9 -105 195 -172 307 l-20 32 36 15 c119 50 246 -34 263 -173 l6 -52 40 0 40 0 -6 61 c-17 191 -192 319 -362 265z m-24 -242 c25 -43 58 -100 73 -127 l28 -47 -36 -15 c-19 -8 -56 -15 -82 -15 -41 0 -51 5 -85 39 -35 35 -39 44 -39 90 0 29 7 66 16 84 21 42 55 78 68 74 6 -2 31 -39 57 -83z"/>
 <path d="M6057 4923 c-2 -4 -57 -100 -122 -213 -64 -113 -128 -222 -141 -242 -72 -112 23 -24 171 158 40 50 82 94 92 96 34 9 61 -10 121 -89 33 -43 79 -96 102 -118 l43 -40 -34 60 c-122 218 -228 395 -232 388z"/>
 <path d="M8383 4783 l-252 -146 20 -39 19 -38 36 15 c46 19 47 19 39 -6 -4 -12 -7 -51 -7 -86 1 -75 33 -142 85 -174 37 -22 120 -26 164 -7 24 10 369 204 383 215 3 3 -41 93 -46 93 -1 0 -80 -45 -176 -100 -95 -55 -188 -105 -207 -110 -73 -20 -131 35 -131 123 0 99 -4 94 183 202 215 123 200 111 182 144 -35 68 -17 73 -292 -86z"/>
 <path d="M5770 4333 c-80 -81 -264 -269 -408 -417 l-262 -268 -178 -68 c-296 -113 -1071 -380 -1102 -380 -6 0 -10 12 -8 27 3 25 12 30 141 72 75 25 137 49 137 53 0 5 -441 8 -981 8 -1067 0 -983 -4 -962 46 2 6 -41 -11 -96 -38 -244 -119 -492 -195 -781 -240 -134 -21 -567 -18 -705 5 -142 24 -314 67 -442 111 -56 20 -105 36 -108 36 -15 0 1 -34 58 -126 279 -445 714 -878 1145 -1141 291 -177 604 -294 937 -350 136 -22 588 -26 725 -5 372 56 662 146 1003 310 103 49 138 71 141 86 2 12 9 56 16 99 14 93 53 213 109 333 38 79 43 86 57 72 14 -14 12 -23 -25 -96 -56 -111 -117 -294 -132 -393 -14 -96 -6 -241 17 -320 29 -100 84 -189 169 -275 44 -44 101 -93 127 -108 27 -16 48 -35 48 -44 0 -52 24 -253 41 -351 46 -257 173 -531 352 -761 64 -82 179 -210 189 -210 4 0 28 39 52 88 62 122 178 294 356 527 85 110 187 244 227 299 l72 98 392 0 391 0 112 -148 c61 -82 168 -223 237 -314 152 -199 255 -353 311 -466 23 -46 45 -84 49 -84 4 0 38 34 76 76 308 343 477 728 500 1142 l6 112 61 44 c83 59 187 171 229 248 55 97 78 193 78 324 0 180 -38 317 -151 544 l-22 46 95 139 c93 138 211 331 278 452 33 61 33 63 14 77 -11 9 -30 16 -43 16 -21 0 -383 117 -447 144 -16 7 -57 21 -90 31 -33 9 -74 26 -91 36 -17 10 -43 19 -56 19 -14 0 -46 11 -72 25 -26 14 -57 25 -70 25 -12 0 -31 7 -42 15 -10 8 -28 15 -39 15 -12 0 -38 9 -60 20 -22 11 -46 20 -55 20 -9 0 -25 7 -36 15 -10 8 -29 15 -41 15 -13 0 -23 5 -23 10 0 6 -9 10 -20 10 -10 0 -30 5 -44 12 -30 13 -212 191 -590 576 -148 149 -270 272 -272 272 -2 0 -4 -11 -4 -24 0 -54 -43 -71 -182 -71 -83 0 -101 3 -125 21 -15 12 -30 33 -33 48 -5 26 -13 19 -150 -121z m-624 -1122 c99 -45 131 -159 70 -251 -30 -45 -79 -70 -141 -70 -53 0 -88 16 -130 59 -25 27 -30 41 -33 96 -4 58 -1 70 22 106 30 44 91 79 141 79 17 0 48 -9 71 -19z m2030 0 c99 -45 131 -159 70 -251 -30 -46 -79 -70 -144 -70 -57 0 -104 26 -140 80 -20 29 -23 45 -20 95 4 74 30 114 90 144 53 26 90 26 144 2z m-2242 -1935 c78 -24 201 -63 273 -86 l133 -41 -28 -37 c-15 -21 -101 -134 -191 -251 l-164 -214 -27 54 c-47 93 -98 241 -119 344 -23 113 -38 275 -26 275 5 0 72 -20 149 -44z m2466 -13 c0 -131 -48 -337 -114 -491 -60 -139 -51 -137 -137 -25 -41 54 -126 165 -188 246 -62 82 -110 151 -106 155 7 7 511 169 533 171 8 1 12 -17 12 -56z"/>
 <path d="M8880 4304 c-7 -19 -10 -36 -8 -38 1 -1 25 -15 51 -30 93 -53 134 -160 82 -211 -42 -43 -73 -33 -201 65 -73 56 -125 74 -172 61 -76 -22 -112 -71 -112 -154 0 -94 58 -185 150 -232 30 -16 30 -16 48 21 16 36 16 37 -2 48 -82 47 -128 123 -106 175 27 66 82 59 180 -23 104 -87 171 -105 245 -63 111 62 108 222 -8 337 -38 39 -103 80 -126 80 -5 0 -15 -16 -21 -36z"/>
 <path d="M8066 3351 c5 -5 66 -27 136 -50 102 -34 131 -40 147 -31 23 12 26 26 11 64 l-10 26 -147 0 c-85 0 -143 -4 -137 -9z"/>
 </g>
<g id="layer106" fill="#f8eede" stroke="none">
 <path d="M6105 8523 c-214 -48 -392 -88 -395 -90 -6 -5 43 -93 52 -93 11 0 332 76 510 121 86 21 162 39 168 39 7 0 -78 -93 -187 -207 -110 -115 -220 -231 -246 -258 l-46 -51 25 -43 c14 -23 29 -41 33 -39 11 4 551 597 551 604 0 16 -55 104 -64 103 -6 0 -186 -39 -401 -86z"/>
 <path d="M6638 8126 c-21 -7 -118 -60 -217 -117 l-180 -103 21 -35 c12 -20 25 -40 29 -45 4 -5 77 31 161 80 189 109 220 124 255 124 65 0 109 -64 100 -146 -3 -29 -10 -61 -15 -71 -6 -10 -87 -63 -181 -117 -94 -54 -173 -102 -177 -107 -4 -7 17 -52 42 -87 2 -4 484 274 497 287 12 12 -20 71 -39 71 -8 0 -28 -7 -44 -15 l-29 -15 10 33 c14 48 11 123 -6 165 -41 97 -126 134 -227 98z"/>
 <path d="M6920 7514 c-151 -41 -254 -164 -254 -304 0 -69 13 -104 60 -159 74 -88 216 -95 336 -16 l37 24 -99 171 -99 171 26 10 c15 5 45 12 68 16 103 14 205 -86 205 -202 0 -40 2 -42 46 -37 l37 4 -5 62 c-10 119 -94 229 -199 260 -63 19 -87 19 -159 0z m-34 -227 c23 -39 56 -98 73 -129 l32 -57 -30 -15 c-44 -23 -122 -21 -155 5 -50 40 -70 111 -47 172 10 26 68 97 80 97 3 0 25 -33 47 -73z"/>
 <path d="M7275 6599 c-170 -38 -343 -76 -383 -84 l-72 -16 26 -50 c19 -34 32 -48 43 -44 9 2 129 31 266 64 138 32 285 68 328 79 42 11 77 18 77 15 0 -4 -83 -93 -433 -460 l-50 -51 24 -44 c14 -23 28 -42 32 -41 5 1 132 137 283 303 l275 300 -27 50 c-22 41 -32 50 -53 49 -14 0 -165 -32 -336 -70z"/>
 <path d="M7615 6110 c-132 -76 -241 -144 -243 -149 -2 -6 6 -27 18 -47 16 -25 27 -33 39 -29 15 6 482 273 490 281 8 7 -37 79 -51 81 -7 2 -121 -60 -253 -137z"/>
 <path d="M7912 5880 l-84 -158 -165 6 -166 5 24 -44 24 -44 133 -10 132 -10 -64 -106 -64 -106 26 -47 c31 -56 22 -65 122 118 l74 137 40 -5 c23 -3 101 -8 175 -11 l133 -6 -28 50 -27 51 -126 0 c-69 0 -132 4 -139 8 -9 6 4 38 54 123 l66 114 -23 43 c-13 24 -26 45 -29 47 -3 2 -43 -68 -88 -155z"/>
 <path d="M7192 5884 c-16 -11 -22 -25 -22 -53 0 -46 24 -71 67 -71 61 0 84 70 38 115 -28 29 -51 31 -83 9z"/>
 <path d="M8135 5406 c-236 -75 -330 -309 -188 -467 71 -78 177 -89 297 -30 36 18 66 37 66 42 0 9 -105 195 -172 307 l-20 32 36 15 c119 50 246 -34 263 -173 l6 -52 40 0 40 0 -6 61 c-17 191 -192 319 -362 265z m-24 -242 c25 -43 58 -100 73 -127 l28 -47 -36 -15 c-19 -8 -56 -15 -82 -15 -41 0 -51 5 -85 39 -35 35 -39 44 -39 90 0 29 7 66 16 84 21 42 55 78 68 74 6 -2 31 -39 57 -83z"/>
 <path d="M8383 4783 l-252 -146 20 -39 19 -38 36 15 c46 19 47 19 39 -6 -4 -12 -7 -51 -7 -86 1 -75 33 -142 85 -174 37 -22 120 -26 164 -7 24 10 369 204 383 215 3 3 -41 93 -46 93 -1 0 -80 -45 -176 -100 -95 -55 -188 -105 -207 -110 -73 -20 -131 35 -131 123 0 99 -4 94 183 202 215 123 200 111 182 144 -35 68 -17 73 -292 -86z"/>
 <path d="M5770 4333 c-80 -81 -264 -269 -408 -417 l-262 -268 -178 -68 c-196 -75 -764 -274 -969 -340 -73 -24 -133 -48 -133 -53 0 -28 233 -413 341 -564 l59 -81 -45 -93 c-46 -94 -103 -254 -94 -263 8 -8 257 59 424 115 288 95 487 212 671 394 244 241 445 588 639 1100 51 135 195 567 195 586 0 5 -8 9 -19 9 -28 0 -69 37 -73 66 -3 23 -18 10 -148 -123z m-624 -1122 c99 -45 131 -159 70 -251 -30 -45 -79 -70 -141 -70 -53 0 -88 16 -130 59 -25 27 -30 41 -33 96 -4 58 -1 70 22 106 30 44 91 79 141 79 17 0 48 -9 71 -19z"/>
 <path d="M6260 4456 c0 -31 -24 -55 -61 -63 -25 -5 -28 -9 -23 -27 4 -11 26 -84 50 -160 138 -444 324 -877 489 -1141 137 -219 305 -405 476 -528 111 -79 292 -171 439 -222 97 -34 451 -135 472 -135 21 0 -14 102 -93 271 l-41 85 95 140 c93 137 212 330 278 451 33 61 33 63 14 77 -11 9 -30 16 -43 16 -21 0 -383 117 -447 144 -16 7 -57 21 -90 31 -33 9 -74 26 -91 36 -17 10 -43 19 -56 19 -14 0 -46 11 -72 25 -26 14 -57 25 -70 25 -12 0 -31 7 -42 15 -10 8 -28 15 -39 15 -12 0 -38 9 -60 20 -22 11 -46 20 -55 20 -9 0 -25 7 -36 15 -10 8 -29 15 -41 15 -13 0 -23 5 -23 10 0 6 -9 10 -20 10 -10 0 -30 5 -44 12 -30 13 -212 191 -590 576 -148 149 -270 272 -272 272 -2 0 -4 -11 -4 -24z m916 -1245 c99 -45 131 -159 70 -251 -30 -46 -79 -70 -144 -70 -57 0 -104 26 -140 80 -20 29 -23 45 -20 95 4 74 30 114 90 144 53 26 90 26 144 2z"/>
 <path d="M8880 4304 c-7 -19 -10 -36 -8 -38 1 -1 25 -15 51 -30 93 -53 134 -160 82 -211 -42 -43 -73 -33 -201 65 -73 56 -125 74 -172 61 -76 -22 -112 -71 -112 -154 0 -94 58 -185 150 -232 30 -16 30 -16 48 21 16 36 16 37 -2 48 -82 47 -128 123 -106 175 27 66 82 59 180 -23 104 -87 171 -105 245 -63 111 62 108 222 -8 337 -38 39 -103 80 -126 80 -5 0 -15 -16 -21 -36z"/>
 <path d="M10 3268 c0 -20 118 -204 212 -330 359 -483 829 -875 1306 -1088 344 -154 667 -216 1078 -208 240 5 295 16 193 37 -105 21 -299 81 -419 128 -118 46 -334 152 -327 159 2 3 38 -1 78 -7 97 -15 271 -5 374 21 80 20 199 73 244 108 23 19 23 19 -105 25 -286 13 -558 131 -861 376 -57 45 -103 86 -103 90 0 4 33 -1 73 -11 196 -51 486 -23 665 63 35 17 62 33 60 35 -3 2 -40 8 -84 14 -122 17 -281 50 -369 77 -172 54 -449 206 -605 332 -58 47 -69 52 -101 47 -216 -34 -579 -33 -784 3 -146 25 -279 59 -413 106 -115 40 -112 39 -112 23z"/>
 </g>

</svg>